HIERARCHY
ROOT Hips
{
	OFFSET	0.00	0.00	0.00
	CHANNELS 6 Xposition Yposition Zposition Zrotation Xrotation Yrotation
	JOINT LeftUpLeg
	{
		OFFSET	 0.126116	-0.014019	-0.065224
		CHANNELS 3 Zrotation Xrotation Yrotation
		JOINT LeftLeg
		{
			OFFSET	 0.000000	 0.000000	 0.569914
			CHANNELS 3 Zrotation Xrotation Yrotation
			JOINT LeftFoot
			{
				OFFSET	 0.000000	 0.000000	 0.544423
				CHANNELS 3 Zrotation Xrotation Yrotation
				JOINT LeftToeBase
				{
					OFFSET	 0.000000	 0.000000	 0.207117
					CHANNELS 3 Zrotation Xrotation Yrotation
					End Site
					{
						OFFSET	 0.000000	 0.000000	 0.207117
					}
				}
			}
		}
	}
	JOINT RightUpLeg
	{
		OFFSET	-0.124023	-0.008373	-0.065224
		CHANNELS 3 Zrotation Xrotation Yrotation
		JOINT RightLeg
		{
			OFFSET	 0.000000	 0.000000	 0.570047
			CHANNELS 3 Zrotation Xrotation Yrotation
			JOINT RightFoot
			{
				OFFSET	 0.000000	 0.000000	 0.544354
				CHANNELS 3 Zrotation Xrotation Yrotation
				JOINT RightToeBase
				{
					OFFSET	 0.000000	 0.000000	 0.207540
					CHANNELS 3 Zrotation Xrotation Yrotation
					End Site
					{
						OFFSET	 0.000000	 0.000000	 0.207540
					}
				}
			}
		}
	}
	JOINT Spine
	{
		OFFSET	 0.000184	-0.007763	 0.117403
		CHANNELS 3 Zrotation Xrotation Yrotation
		JOINT Spine1
		{
			OFFSET	 0.000000	 0.000000	 0.137269
			CHANNELS 3 Zrotation Xrotation Yrotation
			JOINT Spine2
			{
				OFFSET	 0.000000	 0.000000	 0.156879
				CHANNELS 3 Zrotation Xrotation Yrotation
				JOINT LeftShoulder
				{
					OFFSET	 0.080501	-0.002496	 0.160144
					CHANNELS 3 Zrotation Xrotation Yrotation
					JOINT LeftArm
					{
						OFFSET	 0.000000	 0.000000	 0.164363
						CHANNELS 3 Zrotation Xrotation Yrotation
						JOINT LeftForeArm
						{
							OFFSET	 0.000000	 0.000000	 0.364576
							CHANNELS 3 Zrotation Xrotation Yrotation
							JOINT LeftHand
							{
								OFFSET	 0.000000	 0.000000	 0.360812
								CHANNELS 3 Zrotation Xrotation Yrotation
								JOINT LeftHandIndex1
								{
									OFFSET	 0.000000	 0.000000	 0.086006
									CHANNELS 3 Zrotation Xrotation Yrotation
									JOINT LeftHandIndex2
									{
										OFFSET	 0.000000	 0.000000	 0.047237
										CHANNELS 3 Zrotation Xrotation Yrotation
										JOINT LeftHandIndex3
										{
											OFFSET	-0.004284	-0.000551	 0.038165
											CHANNELS 3 Zrotation Xrotation Yrotation
											End Site
											{
												OFFSET	-0.004284	-0.000551	 0.038165
											}
										}
									}
								}
							}
						}
					}
				}
				JOINT Neck
				{
					OFFSET	 0.000000	 0.000000	 0.176489
					CHANNELS 3 Zrotation Xrotation Yrotation
					JOINT Head
					{
						OFFSET	 0.000000	-0.001747	 0.077940
						CHANNELS 3 Zrotation Xrotation Yrotation
						End Site
						{
							OFFSET	 0.000000	-0.001747	 0.077940
						}
					}
				}
				JOINT RightShoulder
				{
					OFFSET	-0.080363	 0.000306	 0.159706
					CHANNELS 3 Zrotation Xrotation Yrotation
					JOINT RightArm
					{
						OFFSET	 0.000000	 0.000000	 0.164196
						CHANNELS 3 Zrotation Xrotation Yrotation
						JOINT RightForeArm
						{
							OFFSET	 0.000000	 0.000000	 0.365611
							CHANNELS 3 Zrotation Xrotation Yrotation
							JOINT RightHand
							{
								OFFSET	 0.000000	 0.000000	 0.360648
								CHANNELS 3 Zrotation Xrotation Yrotation
								JOINT RightHandIndex1
								{
									OFFSET	 0.000000	 0.000000	 0.069977
									CHANNELS 3 Zrotation Xrotation Yrotation
									JOINT RightHandIndex2
									{
										OFFSET	 0.000000	 0.000000	 0.052305
										CHANNELS 3 Zrotation Xrotation Yrotation
										JOINT RightHandIndex3
										{
											OFFSET	 0.009002	-0.000782	 0.042196
											CHANNELS 3 Zrotation Xrotation Yrotation
											End Site
											{
												OFFSET	 0.009002	-0.000782	 0.042196
											}
										}
									}
								}
							}
						}
					}
				}
			}
		}
	}
}
MOTION
Frames:    8
Frame Time: 0.03333334
-0.719813	-0.006509	 1.271593	-176.101600	-6.966950	 0.164781	 12.889450	 3.946238	 175.313900	-6.355665	-13.941060	-1.894947	-7.332964	 71.525270	 0.673829	-2.385833	 28.452760	 0.000004	-10.564300	 5.468029	-177.227400	 3.564893	-13.965830	 0.914813	 7.224989	 71.622570	-2.871777	 2.384659	 28.388700	-0.000001	-1.387129	 7.514793	-2.702353	 0.471493	 11.552560	 7.385566	-7.048408	-10.066520	-7.982283	-91.776150	 78.527360	 180.000000	-11.295850	 14.774780	 15.482760	-16.292750	-4.568084	-65.422730	-2.145517	-12.340380	-2.443626	-4.130354	 21.526190	 0.991307	-5.167926	 0.731697	 3.519349	-1.378229	 35.397820	-2.634230	-9.251939	 1.362834	 4.866654	-6.456342	-17.306800	-6.898290	 89.782080	 78.203900	-180.000000	 25.113090	 7.499363	-8.520235	 10.371760	-2.960558	 62.855000	 51.059960	 39.993420	-9.379378	 5.716295	 19.173350	-3.684826	 5.027458	 0.246833	-9.377971	-2.350882	 35.473990	 5.254307
-0.720005	-0.006669	 1.270849	-176.032400	-7.075103	-0.033660	 12.962010	 3.445828	 175.215500	-6.482788	-15.776430	-2.173421	-9.607811	 72.684360	 3.127230	-2.385833	 28.452760	 0.000004	-10.404420	 5.420917	-176.923500	 3.574254	-15.215230	 0.997254	 7.656075	 72.695170	-3.326602	 2.384659	 28.388700	-0.000001	-2.121932	 7.710047	-2.408468	-0.045779	 10.585430	 7.141892	-6.848855	-9.383534	-7.719470	-91.776120	 78.527400	 180.000000	-11.274680	 21.501350	 18.812550	-16.747650	-5.036411	-72.072490	-2.311692	-12.433120	-2.475874	-4.130354	 21.526190	 0.991307	-5.167926	 0.731697	 3.519349	-1.378229	 35.397820	-2.634230	-9.133188	 1.188289	 4.786635	-6.363451	-16.983530	-6.726902	 89.782130	 78.203890	 180.000000	 22.667440	 11.816810	-11.622980	 10.850730	-3.227302	 72.200420	 49.992490	 35.978340	-6.878220	 5.716295	 19.173350	-3.684826	 5.027458	 0.246833	-9.377971	-2.350882	 35.473990	 5.254307
-0.720197	-0.006824	 1.270085	-176.031300	-7.126050	-0.255226	 13.133580	 2.995471	 175.121200	-6.629535	-17.421260	-2.437827	-12.176590	 73.581920	 5.916071	-2.385833	 28.452760	 0.000004	-10.124210	 5.366905	-176.628800	 3.521960	-16.389840	 1.057379	 7.998632	 73.791890	-3.612965	 2.384659	 28.388700	-0.000001	-2.833827	 7.826094	-2.016500	-0.580648	 9.585261	 6.733707	-6.600799	-8.668689	-7.372233	-91.776100	 78.527420	 179.999900	-11.128570	 28.525100	 21.208520	-17.129880	-5.245507	-76.673280	-2.536065	-12.555180	-2.500111	-4.130354	 21.526190	 0.991307	-5.167926	 0.731697	 3.519349	-1.378229	 35.397820	-2.634230	-8.939534	 0.903978	 4.612169	-6.222656	-16.567370	-6.273252	 89.782100	 78.203850	 180.000000	 19.637210	 16.329310	-13.702850	 11.275290	-3.512144	 80.171620	 47.612320	 32.400780	-3.911096	 5.716295	 19.173350	-3.684826	 5.027458	 0.246833	-9.377971	-2.350882	 35.473990	 5.254307
-0.720383	-0.007030	 1.269057	-176.042800	-7.184681	-0.338646	 13.227140	 2.357868	 174.774100	-6.787202	-19.646350	-2.791161	-16.025110	 74.933200	 9.979847	-2.385833	 28.452760	 0.000004	-9.852389	 5.541195	-176.432400	 3.442933	-17.577360	 1.107684	 8.963641	 75.009990	-4.537239	 2.384659	 28.388700	-0.000001	-3.780032	 8.030756	-1.830483	-1.345831	 8.064391	 6.268021	-6.275873	-7.536036	-6.909030	-91.776200	 78.527450	-180.000000	-10.358190	 38.332320	 22.675670	-17.362830	-5.432945	-79.536420	-2.698238	-12.631300	-2.536808	-4.130354	 21.526190	 0.991307	-5.167926	 0.731697	 3.519349	-1.378229	 35.397820	-2.634230	-8.740870	 0.678209	 4.532468	-6.064338	-16.045200	-6.103144	 89.782120	 78.203870	 180.000000	 14.801830	 22.945090	-14.811730	 11.814750	-4.001598	 89.096460	 42.848140	 27.747930	-0.090138	 5.716295	 19.173350	-3.684826	 5.027458	 0.246833	-9.377971	-2.350882	 35.473990	 5.254307
-0.720483	-0.007230	 1.268117	-176.066800	-7.233837	-0.162045	 13.170960	 1.726993	 174.193100	-6.887932	-21.735730	-3.111831	-20.258220	 76.374770	 14.317580	-2.385833	 28.452760	 0.000004	-9.690429	 5.951456	-176.489600	 3.351716	-18.297120	 1.122770	 10.529200	 75.864590	-6.096498	 2.384659	 28.388700	-0.000001	-4.645792	 8.330588	-2.064746	-2.102389	 6.381593	 5.929109	-5.969224	-6.239065	-6.467934	-91.776150	 78.527400	 180.000000	-8.662438	 47.330910	 21.513550	-17.216750	-5.548347	-78.353940	-2.687010	-12.605090	-2.577288	-4.130354	 21.526190	 0.991307	-5.167926	 0.731697	 3.519349	-1.378229	 35.397820	-2.634230	-8.612141	 0.637291	 4.632806	-5.934834	-15.566900	-6.451661	 89.782130	 78.203870	 180.000000	 9.201646	 29.628480	-13.776920	 12.321070	-4.663274	 95.529700	 36.796750	 23.654510	 3.190392	 5.716295	 19.173350	-3.684826	 5.027458	 0.246833	-9.377971	-2.350882	 35.473990	 5.254307
-0.720725	-0.007934	 1.265322	-176.120600	-6.733429	 0.247181	 13.440490	-0.343787	 172.437000	-7.164675	-27.251410	-3.974606	-35.616850	 78.974040	 30.054830	-2.385833	 28.452760	 0.000004	-8.843633	 6.878299	-176.701900	 3.213656	-20.217950	 1.188047	 16.682940	 78.982020	-12.286210	 2.384659	 28.388700	-0.000001	-7.726586	 9.354488	-2.137663	-4.741859	-0.648777	 3.334126	-4.849542	-1.193688	-4.342190	-91.776230	 78.527360	-180.000000	 6.262500	 66.544460	-8.621135	-13.866390	-3.811145	-40.558140	-2.824059	-12.956340	-2.651838	-4.130354	 21.526190	 0.991307	-5.167926	 0.731697	 3.519349	-1.378229	 35.397820	-2.634230	-7.701521	-0.031842	 4.018498	-5.327635	-13.673730	-5.844635	 89.782100	 78.203890	 180.000000	-22.372570	 48.975060	 9.055820	 13.109210	-6.102095	 101.786100	 11.232950	 11.591160	 12.487290	 5.716295	 19.173350	-3.684826	 5.027458	 0.246833	-9.377971	-2.350882	 35.473990	 5.254307
-0.721829	-0.008555	 1.265024	-176.808100	-5.921139	-0.302009	 14.840190	-1.395054	 172.201300	-7.647430	-29.411030	-4.502979	-43.626630	 79.590130	 38.570380	-2.385833	 28.452760	 0.000004	-7.687362	 6.532564	-176.054000	 3.133028	-21.785490	 1.245809	 23.029270	 81.114530	-18.628500	 2.384659	 28.388700	-0.000001	-9.571609	 10.733780	-1.260240	-6.761241	-7.981170	 0.799181	-4.151910	 4.445270	-2.441771	-91.776150	 78.527430	 180.000000	 14.986770	 68.668840	-37.136050	-13.379430	-0.030373	-1.206681	-3.165030	-13.798130	-2.680669	-4.130354	 21.526190	 0.991307	-5.167926	 0.731697	 3.519349	-1.378229	 35.397820	-2.634230	-6.961542	-0.400375	 3.568477	-4.825258	-11.702310	-5.742340	 89.782070	 78.203900	-180.000000	-48.908610	 51.524590	 35.469940	 12.704250	-7.189630	 97.247140	-3.593721	 5.842170	 15.898410	 5.716295	 19.173350	-3.684826	 5.027458	 0.246833	-9.377971	-2.350882	 35.473990	 5.254307
-0.723228	-0.008698	 1.267035	-177.532000	-5.547979	 0.029313	 15.508150	-1.880936	 172.114700	-8.049644	-29.461730	-4.711850	-47.722650	 80.800910	 42.783180	-2.385833	 28.452760	 0.000004	-6.678685	 6.087550	-176.453100	 2.908725	-21.599310	 1.152882	 22.517410	 80.642060	-17.928270	 2.384659	 28.388700	-0.000001	-9.423218	 11.967180	-1.731793	-7.086464	-11.698060	 0.286033	-3.893051	 7.912773	-1.864244	-91.776210	 78.527420	-180.000000	 14.208540	 67.165900	-37.511540	-14.037310	-0.019796	-1.392765	-3.134615	-14.201280	-2.714135	-4.130354	 21.526190	 0.991307	-5.167926	 0.731697	 3.519349	-1.378229	 35.397820	-2.634230	-6.511087	-0.793781	 2.933320	-4.550189	-9.890106	-4.573503	 89.782070	 78.203870	-180.000000	-46.484370	 50.325570	 33.345260	 13.517740	-7.753535	 102.882900	-2.426284	 9.527951	 11.078330	 5.716295	 19.173350	-3.684826	 5.027458	 0.246833	-9.377971	-2.350882	 35.473990	 5.254307
